<svg xmlns="http://www.w3.org/2000/svg" viewBox="0 0 64 64" role="img" aria-label="B slash">
  <rect width="64" height="64" rx="16" fill="#191e1b"/>
  <rect x="1" y="1" width="62" height="62" rx="15" fill="none" stroke="#3a4740" stroke-width="2"/>
  <path d="M18 17h13c8 0 13 4 13 10 0 4-2 7-6 9 5 1 8 5 8 10 0 8-6 12-15 12H18V17Zm9 8v8h4c4 0 6-1 6-4s-2-4-6-4h-4Zm0 16v9h5c4 0 7-1 7-4 0-4-3-5-7-5h-5Z" fill="#a8e0ca"/>
  <path d="m47 15-24 34" stroke="#82cbb0" stroke-width="4" stroke-linecap="round"/>
</svg>
